<svg width="21" height="21" viewBox="0 0 21 21" fill="none" xmlns="http://www.w3.org/2000/svg">
<path d="M10.7129 18.0316C10.2963 18.0316 9.79626 17.8649 9.46293 17.5316C4.04626 12.7816 3.96293 12.6982 3.96293 12.6149L3.8796 12.5316C2.8796 11.5316 2.29626 10.1149 2.29626 8.69824V8.53158C2.3796 5.53158 4.79626 3.19824 7.79626 3.19824C8.71293 3.19824 9.96293 3.69824 10.7129 4.69824C11.4629 3.69824 12.7963 3.19824 13.7129 3.19824C16.7129 3.19824 19.0463 5.53158 19.2129 8.53158V8.69824C19.2129 10.1982 18.6296 11.5316 17.6296 12.6149L17.5463 12.6982C17.4629 12.7816 16.7963 13.3649 12.0463 17.6149C11.6296 17.8649 11.2129 18.0316 10.7129 18.0316ZM5.21293 12.3649C5.54626 12.6982 7.21293 13.8649 10.2963 16.5316C10.5463 16.7816 10.8796 16.7816 11.1296 16.5316C14.2963 13.6982 16.1296 12.1149 16.5463 11.7816L16.6296 11.6982C17.4629 10.8649 17.8796 9.78158 17.8796 8.69824V8.53158C17.7963 6.19824 15.9629 4.44824 13.6296 4.44824C13.0463 4.44824 11.8796 4.86491 11.4629 5.78158C11.2963 6.11491 10.9629 6.28158 10.6296 6.28158C10.2963 6.28158 9.96293 6.11491 9.79626 5.78158C9.3796 4.94824 8.29626 4.44824 7.6296 4.44824C5.3796 4.44824 3.46293 6.28158 3.3796 8.53158V8.78158C3.3796 9.86491 3.8796 10.9482 4.6296 11.6982L5.21293 12.3649Z" fill="#5C5C5C"/>
</svg>
